<?xml version="1.0" ?><!DOCTYPE svg  PUBLIC '-//W3C//DTD SVG 1.1//EN'  'http://www.w3.org/Graphics/SVG/1.1/DTD/svg11.dtd'><svg width="64px" height="64px" viewBox="0 0 64 64" style="fill-rule:evenodd;clip-rule:evenodd;stroke-linejoin:round;stroke-miterlimit:2;" version="1.1" xml:space="preserve" xmlns="http://www.w3.org/2000/svg" xmlns:serif="http://www.serif.com/" xmlns:xlink="http://www.w3.org/1999/xlink"><g transform="matrix(1,0,0,1,-508,-243.508)"><g id="car-front" transform="matrix(1,0,0,1,174.83,243.508)"><rect height="64" style="fill:none;" width="64" x="333.17" y="0"/><g transform="matrix(1,0,0,1,141.17,-320)"><path d="M206.495,346.19L207.225,344L206,344C204.895,344 204,343.105 204,342C204,340.895 204.895,340 206,340C207.225,340 208.558,340 208.558,340C208.558,340 209.512,337.138 210.103,335.368C210.375,334.551 211.139,334 212,334C216.667,334 231.333,334 236,334C236.861,334 237.625,334.551 237.897,335.368L239.442,340L242,340C243.105,340 244,340.895 244,342C244,343.105 243.105,344 242,344L240.775,344L241.505,346.19C244.09,346.858 246,349.206 246,352L246,370C246,371.105 245.105,372 244,372C242.778,372 241.222,372 240,372C238.895,372 238,371.105 238,370L238,368L210,368L210,370C210,371.105 209.105,372 208,372C206.778,372 205.222,372 204,372C202.895,372 202,371.105 202,370C202,366.196 202,357.782 202,352C202,349.206 203.91,346.858 206.495,346.19ZM210,354C211.105,354 212,354.895 212,356C212,357.105 211.105,358 210,358C208.255,358 206,358 206,358L206,364L212.764,364C212.764,364 215.114,359.301 216.211,357.106C216.55,356.428 217.242,356 218,356C220.734,356 227.266,356 230,356C230.758,356 231.45,356.428 231.789,357.106C232.886,359.301 235.236,364 235.236,364L242,364L242,358L238,358C236.895,358 236,357.105 236,356C236,354.895 236.895,354 238,354C239.745,354 242,354 242,354L242,352C242,350.895 241.105,350 240,350C233.698,350 214.302,350 208,350C206.895,350 206,350.895 206,352L206,354L210,354ZM228.764,360L219.236,360L217.236,364L230.764,364L228.764,360ZM213.442,338L210.775,346L237.225,346L234.558,338L213.442,338Z"/></g></g></g></svg>